<mxfile host="65bd71144e">
    <diagram id="z7T5PaSYZQkaXgxwJ4zX" name="Page-1">
        <mxGraphModel dx="909" dy="599" grid="1" gridSize="10" guides="1" tooltips="1" connect="1" arrows="1" fold="1" page="1" pageScale="1" pageWidth="850" pageHeight="1100" math="0" shadow="0">
            <root>
                <mxCell id="0"/>
                <mxCell id="1" parent="0"/>
                <mxCell id="2" value="User&lt;div&gt;name: S&lt;/div&gt;&lt;div&gt;id: 1&lt;/div&gt;" style="ellipse;whiteSpace=wrap;html=1;" vertex="1" parent="1">
                    <mxGeometry x="110" y="260" width="120" height="80" as="geometry"/>
                </mxCell>
                <mxCell id="3" value="User&lt;div&gt;name: S&lt;/div&gt;&lt;div&gt;id: 1&lt;/div&gt;" style="ellipse;whiteSpace=wrap;html=1;" vertex="1" parent="1">
                    <mxGeometry x="450" y="260" width="120" height="80" as="geometry"/>
                </mxCell>
            </root>
        </mxGraphModel>
    </diagram>
</mxfile>